<?xml version="1.0" encoding="UTF-8" standalone="no"?>
<svg
   version="1.1"
   width="12mm"
   height="32.999359mm"
   viewBox="-6060000 -13560000 12000000 32999358"
   id="svg234"
   sodipodi:docname="SWEB 8094.svg"
   inkscape:version="1.2.1 (9c6d41e410, 2022-07-14)"
   xmlns:inkscape="http://www.inkscape.org/namespaces/inkscape"
   xmlns:sodipodi="http://sodipodi.sourceforge.net/DTD/sodipodi-0.dtd"
   xmlns="http://www.w3.org/2000/svg"
   xmlns:svg="http://www.w3.org/2000/svg"
   xmlns:rdf="http://www.w3.org/1999/02/22-rdf-syntax-ns#"
   xmlns:cc="http://creativecommons.org/ns#"
   xmlns:dc="http://purl.org/dc/elements/1.1/">
  <defs
     id="defs238">
    <linearGradient
       id="_Linear1"
       x1="0"
       y1="0"
       x2="1"
       y2="0"
       gradientUnits="userSpaceOnUse"
       gradientTransform="matrix(39.9682,0,0,33.2409,-24.5276,3.39517)">
      <stop
         offset="0"
         style="stop-color:rgb(112,0,13);stop-opacity:1"
         id="stop2925" />
      <stop
         offset="0.2"
         style="stop-color:rgb(204,0,23);stop-opacity:1"
         id="stop2927" />
      <stop
         offset="0.8"
         style="stop-color:rgb(204,0,23);stop-opacity:1"
         id="stop2929" />
      <stop
         offset="1"
         style="stop-color:rgb(112,0,13);stop-opacity:1"
         id="stop2931" />
    </linearGradient>
    <linearGradient
       id="_Linear2"
       x1="0"
       y1="0"
       x2="1"
       y2="0"
       gradientUnits="userSpaceOnUse"
       gradientTransform="matrix(31.1244,0,0,40.9856,12.8126,39.515)">
      <stop
         offset="0"
         style="stop-color:rgb(118,0,0);stop-opacity:1"
         id="stop2934" />
      <stop
         offset="0.26"
         style="stop-color:rgb(181,0,17);stop-opacity:1"
         id="stop2936" />
      <stop
         offset="0.5"
         style="stop-color:rgb(204,0,23);stop-opacity:1"
         id="stop2938" />
      <stop
         offset="0.74"
         style="stop-color:rgb(181,0,17);stop-opacity:1"
         id="stop2940" />
      <stop
         offset="1"
         style="stop-color:rgb(118,0,0);stop-opacity:1"
         id="stop2942" />
    </linearGradient>
  </defs>
  <sodipodi:namedview
     id="namedview236"
     pagecolor="#ffffff"
     bordercolor="#999999"
     borderopacity="1"
     inkscape:showpageshadow="0"
     inkscape:pageopacity="0"
     inkscape:pagecheckerboard="0"
     inkscape:deskcolor="#d1d1d1"
     inkscape:document-units="mm"
     showgrid="false"
     inkscape:zoom="5.024583"
     inkscape:cx="65.876113"
     inkscape:cy="64.980516"
     inkscape:window-width="2560"
     inkscape:window-height="1361"
     inkscape:window-x="2551"
     inkscape:window-y="-9"
     inkscape:window-maximized="1"
     inkscape:current-layer="svg234" />
  <title
     id="title2">Picture generated by PcbDraw </title>
  <desc
     id="desc4">Picture generated by PcbDraw</desc>
  <rect
     id="origin"
     fill="#ff0000"
     width="1000000"
     height="1000000"
     x="-60000.039"
     y="13940000" />
  <g
     transform="matrix(352770.42,0,0,352770.42,-10059792,-20499700)"
     id="g2923"
     style="clip-rule:evenodd;fill-rule:evenodd;stroke-linecap:round;stroke-linejoin:round;stroke-miterlimit:1.5">
    <g
       id="case">
      <g
         transform="matrix(0.851071,0,0,1.02331,32.2133,76.1225)"
         id="g2906">
        <path
           d="m 15.441,-14.998 c 0,-0.765 -0.746,-1.385 -1.666,-1.385 -6.501,0 -30.136,0 -36.637,0 -0.92,0 -1.666,0.62 -1.666,1.385 0,7.034 0,38.847 0,48.476 0,1.53 1.492,2.77 3.331,2.77 H 12.11 c 1.839,0 3.331,-1.24 3.331,-2.77 z"
           style="fill:url(#_Linear1)"
           id="path2902" />
        <path
           d="m 15.441,-14.998 v 48.476 c 0,1.53 -1.492,2.77 -3.331,2.77 h -33.307 c -1.839,0 -3.331,-1.24 -3.331,-2.77 v -48.476 c 0,-0.765 0.746,-1.385 1.666,-1.385 h 36.637 c 0.92,0 1.666,0.62 1.666,1.385 z m -0.353,0 c 0,-0.603 -0.588,-1.092 -1.313,-1.092 h -36.637 c -0.725,0 -1.313,0.489 -1.313,1.092 v 48.476 c 0,1.368 1.333,2.477 2.978,2.477 H 12.11 c 1.645,0 2.978,-1.109 2.978,-2.477 z"
           style="fill:#8f000d"
           id="path2904" />
      </g>
      <rect
         x="12.756"
         y="19.672001"
         width="31.181"
         height="39.685001"
         style="fill:url(#_Linear2)"
         id="rect2908" />
      <g
         transform="matrix(1.99139,0,0,1.31676,-6.08845,53.1846)"
         id="g2912">
        <rect
           x="9.4910002"
           y="19.197001"
           width="15.601"
           height="1.722"
           style="fill:#e6e6e6;stroke:#cccccc;stroke-width:0.18px"
           id="rect2910" />
      </g>
      <g
         transform="matrix(1.99139,0,0,1.31676,-6.08845,81.9846)"
         id="g2916">
        <rect
           x="9.4910002"
           y="19.197001"
           width="15.601"
           height="1.722"
           style="fill:#e6e6e6;stroke:#cccccc;stroke-width:0.18px"
           id="rect2914" />
      </g>
      <g
         transform="matrix(1.14494,0,0,1.17509,-1.68471,-15.947)"
         id="g2920">
        <path
           d="m 31.181,85.891 c 0,-0.533 -0.444,-0.965 -0.99,-0.965 h -7.923 c -0.546,0 -0.99,0.432 -0.99,0.965 v 15.438 c 0,0.533 0.444,0.965 0.99,0.965 h 7.923 c 0.546,0 0.99,-0.432 0.99,-0.965 z"
           style="fill:#92000d;stroke:#88000d;stroke-width:0.26px"
           id="path2918" />
      </g>
    </g>
  </g>
  <metadata
     id="metadata5535">
    <rdf:RDF>
      <cc:Work
         rdf:about="">
        <dc:title>Picture generated by PcbDraw </dc:title>
      </cc:Work>
    </rdf:RDF>
  </metadata>
</svg>
